HIERARCHY
ROOT hip
{
  OFFSET 0 0 0
  CHANNELS 6 Xposition Yposition Zposition Zrotation Yrotation Xrotation
  JOINT abdomen
  {
    OFFSET 0 20.6881 -0.73152
    CHANNELS 3 Zrotation Xrotation Yrotation
    JOINT chest
    {
      OFFSET 0 11.7043 -0.48768
      CHANNELS 3 Zrotation Xrotation Yrotation
      JOINT neck
      {
        OFFSET 0 22.1894 -2.19456
        CHANNELS 3 Zrotation Xrotation Yrotation
        JOINT head
        {
          OFFSET -0.24384 7.07133 1.2192
          CHANNELS 3 Zrotation Xrotation Yrotation
          JOINT leftEye
          {
            OFFSET 4.14528 8.04674 8.04672
            CHANNELS 3 Zrotation Xrotation Yrotation
            End Site
            {
              OFFSET 1 0 0
            }
          }
          JOINT rightEye
          {
            OFFSET -3.6576 8.04674 8.04672
            CHANNELS 3 Zrotation Xrotation Yrotation
            End Site
            {
              OFFSET 1 0 0
            }
          }
        }
      }
      JOINT rCollar
      {
        OFFSET -2.68224 19.2634 -4.8768
        CHANNELS 3 Zrotation Xrotation Yrotation
        JOINT rShldr
        {
          OFFSET -8.77824 -1.95073 1.46304
          CHANNELS 3 Zrotation Xrotation Yrotation
          JOINT rForeArm
          {
            OFFSET -28.1742 -1.7115 0.48768
            CHANNELS 3 Zrotation Xrotation Yrotation
            JOINT rHand
            {
              OFFSET -22.5879 0.773209 7.07136
              CHANNELS 3 Zrotation Xrotation Yrotation
              JOINT rThumb1
              {
                OFFSET -1.2192 -0.487915 3.41376
                CHANNELS 3 Zrotation Xrotation Yrotation
                JOINT rThumb2
                {
                  OFFSET -3.37035 -0.52449 3.41376
                  CHANNELS 3 Zrotation Xrotation Yrotation
                  End Site
                  {
                    OFFSET -1.78271 -1.18214 1.43049
                  }
                }
              }
              JOINT rIndex1
              {
                OFFSET -7.75947 0.938293 5.60832
                CHANNELS 3 Zrotation Xrotation Yrotation
                JOINT rIndex2
                {
                  OFFSET -2.54057 -0.884171 1.56538
                  CHANNELS 3 Zrotation Xrotation Yrotation
                  End Site
                  {
                    OFFSET -1.62519 -0.234802 1.16502
                  }
                }
              }
              JOINT rMid1
              {
                OFFSET -8.24714 1.18213 3.41376
                CHANNELS 3 Zrotation Xrotation Yrotation
                JOINT rMid2
                {
                  OFFSET -3.10165 -0.590103 1.0647
                  CHANNELS 3 Zrotation Xrotation Yrotation
                  End Site
                  {
                    OFFSET -2.48547 -0.328903 0.83742
                  }
                }
              }
              JOINT rRing1
              {
                OFFSET -8.82822 0.546677 1.51678
                CHANNELS 3 Zrotation Xrotation Yrotation
                JOINT rRing2
                {
                  OFFSET -2.60934 -0.819778 -0.0198488
                  CHANNELS 3 Zrotation Xrotation Yrotation
                  End Site
                  {
                    OFFSET -2.33842 -0.294052 0.168128
                  }
                }
              }
              JOINT rPinky1
              {
                OFFSET -8.27202 -0.0477905 -0.4584
                CHANNELS 3 Zrotation Xrotation Yrotation
                JOINT rPinky2
                {
                  OFFSET -1.82734 -0.647385 -0.700984
                  CHANNELS 3 Zrotation Xrotation Yrotation
                  End Site
                  {
                    OFFSET -1.69225 -0.51767 -0.607171
                  }
                }
              }
            }
          }
        }
      }
      JOINT lCollar
      {
        OFFSET 2.68224 19.2634 -4.8768
        CHANNELS 3 Zrotation Xrotation Yrotation
        JOINT lShldr
        {
          OFFSET 8.77824 -1.95073 1.46304
          CHANNELS 3 Zrotation Xrotation Yrotation
          JOINT lForeArm
          {
            OFFSET 28.1742 -1.7115 0.48768
            CHANNELS 3 Zrotation Xrotation Yrotation
            JOINT lHand
            {
              OFFSET 22.5879 0.773209 7.07136
              CHANNELS 3 Zrotation Xrotation Yrotation
              JOINT lThumb1
              {
                OFFSET 1.2192 -0.487915 3.41376
                CHANNELS 3 Zrotation Xrotation Yrotation
                JOINT lThumb2
                {
                  OFFSET 3.37035 -0.52449 3.41376
                  CHANNELS 3 Zrotation Xrotation Yrotation
                  End Site
                  {
                    OFFSET 1.78271 -1.18214 1.43049
                  }
                }
              }
              JOINT lIndex1
              {
                OFFSET 7.75947 0.938293 5.60832
                CHANNELS 3 Zrotation Xrotation Yrotation
                JOINT lIndex2
                {
                  OFFSET 2.54057 -0.884171 1.56538
                  CHANNELS 3 Zrotation Xrotation Yrotation
                  End Site
                  {
                    OFFSET 1.62519 -0.234802 1.16502
                  }
                }
              }
              JOINT lMid1
              {
                OFFSET 8.24714 1.18213 3.41376
                CHANNELS 3 Zrotation Xrotation Yrotation
                JOINT lMid2
                {
                  OFFSET 3.10165 -0.590103 1.0647
                  CHANNELS 3 Zrotation Xrotation Yrotation
                  End Site
                  {
                    OFFSET 2.48547 -0.328903 0.83742
                  }
                }
              }
              JOINT lRing1
              {
                OFFSET 8.82822 0.546677 1.51678
                CHANNELS 3 Zrotation Xrotation Yrotation
                JOINT lRing2
                {
                  OFFSET 2.60934 -0.819778 -0.0198488
                  CHANNELS 3 Zrotation Xrotation Yrotation
                  End Site
                  {
                    OFFSET 2.33842 -0.294052 0.168128
                  }
                }
              }
              JOINT lPinky1
              {
                OFFSET 8.27202 -0.0477905 -0.4584
                CHANNELS 3 Zrotation Xrotation Yrotation
                JOINT lPinky2
                {
                  OFFSET 1.82734 -0.647385 -0.700984
                  CHANNELS 3 Zrotation Xrotation Yrotation
                  End Site
                  {
                    OFFSET 1.69225 -0.51767 -0.607171
                  }
                }
              }
            }
          }
        }
      }
    }
  }
  JOINT rButtock
  {
    OFFSET -8.77824 4.35084 1.2192
    CHANNELS 3 Zrotation Xrotation Yrotation
    JOINT rThigh
    {
      OFFSET 0 -1.70687 -2.19456
      CHANNELS 3 Zrotation Xrotation Yrotation
      JOINT rShin
      {
        OFFSET 0 -36.8199 0.73152
        CHANNELS 3 Zrotation Xrotation Yrotation
        JOINT rFoot
        {
          OFFSET 0.73152 -45.1104 -5.12064
          CHANNELS 3 Zrotation Xrotation Yrotation
          End Site
          {
            OFFSET -1.1221 -3.69964 12.103
          }
        }
      }
    }
  }
  JOINT lButtock
  {
    OFFSET 8.77824 4.35084 1.2192
    CHANNELS 3 Zrotation Xrotation Yrotation
    JOINT lThigh
    {
      OFFSET 0 -1.70687 -2.19456
      CHANNELS 3 Zrotation Xrotation Yrotation
      JOINT lShin
      {
        OFFSET 0 -36.8199 0.73152
        CHANNELS 3 Zrotation Xrotation Yrotation
        JOINT lFoot
        {
          OFFSET -0.73152 -45.1104 -5.12064
          CHANNELS 3 Zrotation Xrotation Yrotation
          End Site
          {
            OFFSET 1.1221 -3.69964 12.103
          }
        }
      }
    }
  }
}
MOTION
Frames:	4
Frame Time:	0.03333
9.920899150893092 55.87162375450134 -58.20457716472447 10.563189506530762 30.389190673828125 8.042983055114746 -17.997642517089844 10.269682884216309 3.4883832931518555 5.952151775360107 -8.886459350585938 1.0594733953475952 -9.488490104675293 17.055112838745117 -12.307833671569824 10.207404136657715 -24.241268157958984 -21.952409744262695 -0.0397273413836956 -0.12539072334766388 -0.0840744897723198 0.19705453515052795 -0.03693673387169838 0.09329540282487869 0.05636744573712349 -0.10279753804206848 0.012123451568186283 36.81947326660156 20.226682662963867 28.975788116455078 -14.478608131408691 -7.414695739746094 26.332576751708984 -0.6195825338363647 18.38737678527832 2.720771551132202 -0.07600131630897522 -0.20258381962776184 0.05109969899058342 0.14547131955623627 -0.00888738688081503 0.0280257947742939 -0.1060260757803917 0.18248209357261658 0.08898524940013885 7.698178768157959 5.414918422698975 0.36538246273994446 -0.00041204801527783275 0.05116606503725052 -0.18334245681762695 2.90488338470459 0.9200155735015869 0.2154368907213211 0.04780936613678932 0.004499920643866062 0.06440497189760208 10.303262710571289 0.580790102481842 -0.06122000887989998 0.19494806230068207 -0.01418403722345829 0.010899671353399754 2.4481277465820312 -0.9150800108909607 -0.11970019340515137 0.02307334914803505 0.02265050821006298 -0.13303275406360626 -106.24557495117188 50.222564697265625 43.461673736572266 28.35405731201172 -39.42887496948242 -82.558837890625 3.3627471923828125 -45.22640609741211 8.21780014038086 -0.1076822280883789 -0.0012636635219678283 -0.038546785712242126 -0.048740826547145844 -0.17151881754398346 -0.18769802153110504 -0.07770577073097229 0.0405435673892498 0.2977217435836792 -7.698727607727051 5.408759593963623 -0.3701750338077545 -0.18659187853336334 0.011803673580288887 -0.02661614678800106 -2.785830020904541 0.9710780382156372 0.016786331310868263 0.23814502358436584 0.02259920723736286 -0.17931748926639557 -10.241911888122559 0.7907460331916809 0.14374396204948425 0.12797585129737854 -0.25116345286369324 -0.04070635885000229 -2.249020576477051 -0.7617107629776001 0.10268686711788177 -0.1627209633588791 0.03833412006497383 0.23978343605995178 -62.338340759277344 -53.42112731933594 -52.803916931152344 -1.674444556236267 68.42463684082031 2.041041135787964 2.1451077461242676 -1.5872976779937744 14.251363754272461 -0.15103137493133545 -0.06988537311553955 -0.07940872758626938 12.447601318359375 13.675493240356445 5.292534828186035 -0.4240700602531433 27.686140060424805 -2.4412472248077393 5.305105209350586 -13.523107528686523 31.766433715820312
9.965719236060977 55.78537583351135 -57.99699048511684 10.728282928466797 30.209983825683594 8.137035369873047 -18.183252334594727 10.064482688903809 3.5076074600219727 5.920331001281738 -8.873597145080566 1.087848424911499 -9.488221168518066 17.103044509887695 -12.334887504577637 10.188881874084473 -24.27678871154785 -22.08207130432129 -0.025383301079273224 -0.12492452561855316 -0.08152605593204498 0.17920729517936707 -0.036446522921323776 0.07245834916830063 0.06307391822338104 -0.10851003229618073 0.016312165185809135 36.72453689575195 20.316753387451172 29.2178955078125 -14.424928665161133 -7.357869625091553 26.194543838500977 -0.6333684921264648 18.568227767944336 2.7324533462524414 -0.1042424812912941 -0.21469658613204956 0.05156351253390312 0.14624537527561188 -0.000818451342638582 0.026275159791111946 -0.10532774776220322 0.1833345741033554 0.09018927067518234 7.718256950378418 5.403426170349121 0.3638593554496765 0.0035898052155971527 0.043719686567783356 -0.18404796719551086 2.923898935317993 0.9180473685264587 0.21843872964382172 0.029727686196565628 0.0029368570540100336 0.06245928257703781 10.295254707336426 0.595824658870697 -0.0704772025346756 0.19896282255649567 -0.0001064744865288958 0.0168475154787302 2.441352128982544 -0.9216669797897339 -0.1095571517944336 0.018746810033917427 0.020078957080841064 -0.12695439159870148 -106.28608703613281 50.159812927246094 43.4313850402832 28.35833168029785 -39.42714309692383 -82.5650634765625 3.362576484680176 -45.217891693115234 8.206951141357422 -0.13598687946796417 0.014691811054944992 -0.0354715995490551 -0.034963998943567276 -0.17242534458637238 -0.19059497117996216 -0.09660431742668152 0.02282988652586937 0.3055171072483063 -7.696288108825684 5.4145426750183105 -0.3811187148094177 -0.19667024910449982 0.02981453761458397 -0.03526880964636803 -2.8010919094085693 0.9742938876152039 0.024548999965190887 0.22753816843032837 0.029262952506542206 -0.18212716281414032 -10.22323226928711 0.7809442281723022 0.14285936951637268 0.11340541392564774 -0.24363985657691956 -0.052640948444604874 -2.2522754669189453 -0.736871600151062 0.10578370839357376 -0.15590915083885193 0.04030933976173401 0.23989389836788177 -62.83555221557617 -53.56096267700195 -53.4777717590332 -1.7430036067962646 68.74806213378906 2.089240312576294 2.2245843410491943 -1.7522956132888794 14.631592750549316 -0.15375104546546936 -0.05763919651508331 -0.07603347301483154 12.363945007324219 14.161688804626465 5.408656597137451 -0.438976913690567 27.137556076049805 -2.442481279373169 5.332074165344238 -13.519850730895996 31.97028350830078
10.016142576932907 55.75475096702576 -57.7938670758158 10.582232475280762 30.13646697998047 8.099056243896484 -17.849271774291992 9.937222480773926 3.54617977142334 5.7897868156433105 -8.884749412536621 1.1156806945800781 -9.466163635253906 17.122722625732422 -12.328634262084961 10.118205070495605 -24.37457847595215 -22.08367347717285 -0.008116359822452068 -0.12151284515857697 -0.0783241018652916 0.16176249086856842 -0.03518083319067955 0.05329902097582817 0.07831965386867523 -0.1265183687210083 0.011403133161365986 36.46843338012695 20.006855010986328 29.622751235961914 -14.437859535217285 -7.356738090515137 26.1612548828125 -0.6392213702201843 18.618968963623047 2.700007438659668 -0.1407483071088791 -0.22510424256324768 0.06362142413854599 0.14146646857261658 0.008740481920540333 0.017754996195435524 -0.1172182485461235 0.2053423672914505 0.08748330920934677 7.736303806304932 5.403595447540283 0.3810269236564636 0.02639024332165718 0.04566905274987221 -0.17019633948802948 2.9436445236206055 0.8915104269981384 0.2236630767583847 0.02467081882059574 -0.011443272233009338 0.056486982852220535 10.283023834228516 0.6059586405754089 -0.09471506625413895 0.19197314977645874 0.02942277491092682 0.007982181385159492 2.433978796005249 -0.9200065732002258 -0.09353018552064896 0.008829683996737003 0.026559632271528244 -0.129679337143898 -106.69297790527344 50.30425262451172 43.80403137207031 28.36729621887207 -39.558616638183594 -82.78453826904297 3.4585113525390625 -45.60803985595703 8.336091041564941 -0.16412517428398132 0.02276943065226078 -0.006446850951761007 -0.00989351887255907 -0.19079019129276276 -0.19609171152114868 -0.10257358849048615 0.007620625663548708 0.3280707001686096 -7.682846546173096 5.411635875701904 -0.3851872384548187 -0.19999513030052185 0.058362964540719986 -0.030300911515951157 -2.8126633167266846 0.9932158589363098 0.023470094427466393 0.2117307186126709 0.028986463323235512 -0.18916144967079163 -10.20108699798584 0.7613394856452942 0.14657089114189148 0.08351054787635803 -0.2500036954879761 -0.0498042032122612 -2.2446115016937256 -0.7215337753295898 0.09919572621583939 -0.13882966339588165 0.03716990351676941 0.22869329154491425 -62.41468048095703 -53.50907516479492 -53.381900787353516 -1.8097686767578125 68.62323760986328 2.1591451168060303 2.2337894439697266 -1.9018112421035767 14.622617721557617 -0.1377851516008377 -0.04311073198914528 -0.06512370705604553 12.574777603149414 13.585493087768555 5.558184623718262 -0.3936484456062317 27.65433692932129 -2.4594826698303223 5.188398361206055 -13.433589935302734 31.688451766967773
10.06868677213788 55.68642616271973 -57.605068385601044 10.367609977722168 30.28649139404297 8.0217924118042 -17.223018646240234 9.876657485961914 3.575861692428589 5.620680332183838 -8.893600463867188 1.1378172636032104 -9.426799774169922 17.127017974853516 -12.32531452178955 10.055145263671875 -24.53819465637207 -22.068294525146484 0.009168120101094246 -0.11287688463926315 -0.07328357547521591 0.14357861876487732 -0.03808584809303284 0.03882988914847374 0.09151305258274078 -0.14347486197948456 -0.009390207938849926 36.16624450683594 19.405290603637695 30.090383529663086 -14.35915756225586 -7.299778938293457 25.97759246826172 -0.644983172416687 18.730981826782227 2.678510904312134 -0.1614908128976822 -0.22285565733909607 0.07324349135160446 0.13417723774909973 0.003843527054414153 0.01496302243322134 -0.11527357995510101 0.23854263126850128 0.08028161525726318 7.7515716552734375 5.406440258026123 0.4035608172416687 0.057874422520399094 0.05406120792031288 -0.14628265798091888 2.95115327835083 0.8566614389419556 0.22526244819164276 0.028098879382014275 -0.01742120273411274 0.06063114479184151 10.275056838989258 0.6114911437034607 -0.11512568593025208 0.1743563711643219 0.04391394555568695 -0.011092079803347588 2.422057628631592 -0.9073157906532288 -0.08097861707210541 0.002819051733240485 0.03853230178356171 -0.14166498184204102 -107.42906188964844 50.44324493408203 44.59885025024414 28.362966537475586 -39.785606384277344 -83.13992309570312 3.620473861694336 -46.284725189208984 8.543787956237793 -0.18616686761379242 0.03703109547495842 0.02044655568897724 0.008837237022817135 -0.20582327246665955 -0.189865842461586 -0.10174569487571716 0.004415812436491251 0.34612250328063965 -7.6744608879089355 5.408991813659668 -0.3786565363407135 -0.21612663567066193 0.07541964203119278 -0.02964286506175995 -2.838731527328491 1.0211308002471924 0.01745307259261608 0.19279147684574127 0.028467966243624687 -0.20084309577941895 -10.189809799194336 0.7351914048194885 0.13464927673339844 0.059832122176885605 -0.25388863682746887 -0.046986497938632965 -2.247286558151245 -0.7150846719741821 0.1005483865737915 -0.12253420054912567 0.01986129768192768 0.22052505612373352 -61.65702819824219 -53.3588981628418 -53.00965881347656 -1.8084685802459717 68.23308563232422 2.183021068572998 2.1792328357696533 -1.9091815948486328 14.398987770080566 -0.11345519870519638 -0.029409993439912796 -0.05051040276885033 12.976792335510254 12.605842590332031 5.656227111816406 -0.3225809335708618 28.723020553588867 -2.4835407733917236 4.991585731506348 -13.358377456665039 31.208675384521484
